<?xml version="1.0" standalone="yes"?>

<svg version="1.1" viewBox="0.0 0.0 383.0 100.0" fill="none" stroke="none" stroke-linecap="square" stroke-miterlimit="10" xmlns="http://www.w3.org/2000/svg" xmlns:xlink="http://www.w3.org/1999/xlink"><clipPath id="p.0"><path d="m0 0l383.0 0l0 100.0l-383.0 0l0 -100.0z" clip-rule="nonzero"></path></clipPath><g clip-path="url(#p.0)"><path fill="#000000" fill-opacity="0.0" d="m0 0l383.04724 0l0 100.0l-383.04724 0z" fill-rule="nonzero"></path><path fill="#999999" fill-opacity="0.9038" d="m0.9099129 52.78033l0 0c0 -21.02161 20.312878 -38.062992 45.37008 -38.062992l0 0c25.057205 0 45.37008 17.041382 45.37008 38.062992l0 0c0 21.02161 -20.312874 38.062992 -45.37008 38.062992l0 0c-25.057201 0 -45.37008 -17.041382 -45.37008 -38.062992z" fill-rule="nonzero"></path><path fill="#999999" fill-opacity="0.9038" d="m42.671066 58.962925l116.09448 0l0 18.519688l-116.09448 0z" fill-rule="nonzero"></path><path fill="#999999" fill-opacity="0.9038" d="m120.42172 27.405256l0 0c0 -7.0073433 5.6805725 -12.687918 12.687912 -12.687918l233.42732 0c3.3650513 0 6.5922546 1.3367596 8.97171 3.7162056c2.3794556 2.379446 3.716217 5.6066666 3.716217 8.971712l0 50.750145c0 7.007347 -5.6805725 12.68792 -12.687927 12.68792l-233.42732 0c-7.0073395 0 -12.687912 -5.6805725 -12.687912 -12.68792z" fill-rule="nonzero"></path><path fill="#ffb337" d="m0.29556116 50.015747l0 0c0 -21.021608 20.312876 -38.062992 45.37008 -38.062992l0 0c25.057198 0 45.37008 17.041382 45.37008 38.062992l0 0c0 21.021614 -20.312881 38.062996 -45.37008 38.062996l0 0c-25.057205 0 -45.37008 -17.041382 -45.37008 -38.062996z" fill-rule="nonzero"></path><path fill="#ffb337" d="m42.056717 56.19834l116.09448 0l0 18.519684l-116.09448 0z" fill-rule="nonzero"></path><path fill="#ffb337" d="m119.80737 24.640675l0 0c0 -7.007345 5.6805725 -12.687919 12.687912 -12.687919l233.42732 0c3.3650513 0 6.5922546 1.3367586 8.97171 3.7162046c2.3794556 2.379446 3.716217 5.6066685 3.716217 8.971714l0 50.75015c0 7.0073395 -5.6805725 12.68792 -12.687927 12.68792l-233.42732 0c-7.0073395 0 -12.687912 -5.68058 -12.687912 -12.68792z" fill-rule="nonzero"></path><path fill="#000000" fill-opacity="0.0" d="m110.45997 -1.0058575l274.4567 0l0 68.91339l-274.4567 0z" fill-rule="nonzero"></path><path fill="#000000" d="m131.3602 23.621645l16.90625 0q5.71875 0 8.71875 0.875q4.03125 1.1875 6.90625 4.21875q2.875 3.03125 4.375 7.421873q1.5 4.390625 1.5 10.828125q0 5.65625 -1.40625 9.75q-1.71875 5.0 -4.90625 8.09375q-2.40625 2.34375 -6.5 3.65625q-3.0625 0.96875 -8.1875 0.96875l-17.40625 0l0 -45.8125zm9.25 7.75l0 30.343748l6.90625 0q3.875 0 5.59375 -0.4375q2.25 -0.5625 3.734375 -1.90625q1.484375 -1.34375 2.421875 -4.421875q0.9375 -3.078125 0.9375 -8.390625q0 -5.3125 -0.9375 -8.15625q-0.9375 -2.84375 -2.625 -4.4375q-1.6875 -1.59375 -4.28125 -2.156248q-1.9375 -0.4375 -7.59375 -0.4375l-4.15625 0zm37.03125 -7.75l18.3125 0q5.4375 0 8.109375 0.453125q2.671875 0.453125 4.78125 1.890625q2.109375 1.4375 3.515625 3.828125q1.40625 2.390623 1.40625 5.359373q0 3.21875 -1.734375 5.90625q-1.734375 2.6875 -4.703125 4.03125q4.1875 1.21875 6.4375 4.15625q2.25 2.9375 2.25 6.90625q0 3.125 -1.453125 6.078125q-1.453125 2.953125 -3.96875 4.71875q-2.515625 1.765625 -6.203125 2.171875q-2.3125 0.25 -11.15625 0.3125l-15.59375 0l0 -45.8125zm9.25 7.625l0 10.593748l6.0625 0q5.40625 0 6.71875 -0.15625q2.375 -0.28125 3.734375 -1.640625q1.359375 -1.359375 1.359375 -3.578125q0 -2.125 -1.171875 -3.453125q-1.171875 -1.3281231 -3.484375 -1.6093731q-1.375 -0.15625 -7.90625 -0.15625l-5.3125 0zm0 18.218748l0 12.25l8.5625 0q5.0 0 6.34375 -0.28125q2.0625 -0.375 3.359375 -1.828125q1.296875 -1.453125 1.296875 -3.890625q0 -2.0625 -1.0 -3.5q-1.0 -1.4375 -2.890625 -2.09375q-1.890625 -0.65625 -8.203125 -0.65625l-7.46875 0z" fill-rule="nonzero"></path><path fill="#1155cc" d="m223.6727 54.621643l6.0 -0.5625l-0.0625 1.59375q0 2.65625 1.21875 4.859375q1.21875 2.203125 4.03125 3.40625q2.8125 1.203125 6.6875 1.203125q5.5 0 8.390625 -2.40625q2.890625 -2.40625 2.890625 -5.5q0 -2.15625 -1.53125 -3.9375q-1.5625 -1.75 -8.53125 -4.75q-5.40625 -2.34375 -7.375 -3.59375q-3.09375 -2.03125 -4.5625 -4.421875q-1.46875 -2.390625 -1.46875 -5.453125q0 -3.531248 1.9375 -6.374998q1.9375 -2.84375 5.671875 -4.34375q3.734375 -1.5 8.421875 -1.5q5.59375 0 9.4375 1.875q3.84375 1.875 5.578125 5.0q1.734375 3.124998 1.734375 5.968748q0 0.28125 -0.03125 0.9375l-5.90625 0.46875q0 -1.9375 -0.34375 -3.03125q-0.625 -1.90625 -1.9375 -3.218748q-1.3125 -1.3125 -3.609375 -2.109375q-2.296875 -0.796875 -5.140625 -0.796875q-5.0 0 -7.78125 2.25q-2.125 1.71875 -2.125 4.562498q0 1.6875 0.875 3.015625q0.875 1.328125 3.15625 2.609375q1.625 0.90625 7.71875 3.59375q4.9375 2.1875 6.8125 3.4375q2.5 1.65625 3.84375 4.015625q1.34375 2.359375 1.34375 5.359375q0 3.71875 -2.265625 6.859375q-2.265625 3.140625 -6.265625 4.859375q-4.0 1.71875 -9.15625 1.71875q-7.78125 0 -12.703125 -3.390625q-4.921875 -3.390625 -4.953125 -12.203125zm40.3125 14.8125l6.9375 -33.1875l5.125 0l-1.21875 5.78125q3.34375 -3.40625 6.25 -4.96875q2.90625 -1.5625 5.9375 -1.5625q4.03125 0 6.328125 2.1875q2.296875 2.1875 2.296875 5.84375q0 1.84375 -0.8125 5.8125l-4.21875 20.09375l-5.65625 0l4.40625 -21.03125q0.65625 -3.0625 0.65625 -4.53125q0 -1.65625 -1.140625 -2.6875q-1.140625 -1.03125 -3.296875 -1.03125q-4.34375 0 -7.734375 3.125q-3.390625 3.125 -4.984375 10.71875l-3.21875 15.4375l-5.65625 0zm57.96875 -4.125q-2.9375 2.53125 -5.65625 3.703125q-2.71875 1.171875 -5.8125 1.171875q-4.59375 0 -7.40625 -2.703125q-2.8125 -2.703125 -2.8125 -6.921875q0 -2.78125 1.265625 -4.921875q1.265625 -2.140625 3.359375 -3.4375q2.09375 -1.296875 5.125 -1.859375q1.90625 -0.375 7.234375 -0.59375q5.328125 -0.21875 7.640625 -1.125q0.65625 -2.3125 0.65625 -3.84375q0 -1.96875 -1.4375 -3.09375q-1.96875 -1.5625 -5.75 -1.5625q-3.5625 0 -5.828125 1.578125q-2.265625 1.578125 -3.296875 4.484375l-5.71875 -0.5q1.75 -4.9375 5.546875 -7.5625q3.796875 -2.625 9.578125 -2.625q6.15625 0 9.75 2.9375q2.75 2.1875 2.75 5.6875q0 2.65625 -0.78125 6.15625l-1.84375 8.25q-0.875 3.9375 -0.875 6.40625q0 1.5625 0.6875 4.5l-5.71875 0q-0.46875 -1.625 -0.65625 -4.125zm2.09375 -12.6875q-1.1875 0.46875 -2.546875 0.71875q-1.359375 0.25 -4.546875 0.53125q-4.9375 0.4375 -6.96875 1.109375q-2.03125 0.671875 -3.0625 2.140625q-1.03125 1.46875 -1.03125 3.25q0 2.375 1.640625 3.90625q1.640625 1.53125 4.671875 1.53125q2.8125 0 5.40625 -1.484375q2.59375 -1.484375 4.09375 -4.140625q1.5 -2.65625 2.34375 -7.5625zm8.34375 29.53125l9.59375 -45.90625l5.21875 0l-0.96875 4.625q2.90625 -3.03125 5.203125 -4.203125q2.296875 -1.171875 4.859375 -1.171875q4.75 0 7.875 3.453125q3.1249695 3.453125 3.1249695 9.890625q0 5.1875 -1.7187195 9.453125q-1.71875 4.265625 -4.21875 6.859375q-2.5 2.59375 -5.0625 3.8125q-2.5625 1.21875 -5.25 1.21875q-5.96875 0 -9.25 -6.0625l-3.75 18.03125l-5.65625 0zm11.1875 -26.28125q0 3.71875 0.53125 5.15625q0.78125 2.03125 2.5625 3.28125q1.78125 1.25 4.125 1.25q4.875 0 7.875 -5.484375q3.0 -5.484375 3.0 -11.203125q0 -4.21875 -2.015625 -6.515625q-2.015625 -2.296875 -5.015625 -2.296875q-2.15625 0 -4.0 1.140625q-1.84375 1.140625 -3.421875 3.40625q-1.578125 2.265625 -2.609375 5.546875q-1.03125 3.28125 -1.03125 5.71875z" fill-rule="nonzero"></path></g></svg>

